<mxfile host="app.diagrams.net" modified="2023-11-22T16:24:40.131Z" agent="Mozilla/5.0 (Windows NT 10.0; Win64; x64) AppleWebKit/537.36 (KHTML, like Gecko) Chrome/119.0.0.0 Safari/537.36" etag="ga85pY51-Hi4NrNRE-0G" version="22.1.3" type="github">
  <diagram name="Page-1" id="1tBCO16QaeSYntb0UlrK">
    <mxGraphModel dx="1050" dy="566" grid="1" gridSize="10" guides="1" tooltips="1" connect="1" arrows="1" fold="1" page="1" pageScale="1" pageWidth="850" pageHeight="1100" math="0" shadow="0">
      <root>
        <mxCell id="0" />
        <mxCell id="1" parent="0" />
        <mxCell id="_K4_nlBd1ZawLLgTwEat-1" value="" style="ellipse;whiteSpace=wrap;html=1;aspect=fixed;" parent="1" vertex="1">
          <mxGeometry x="360" y="230" width="120" height="120" as="geometry" />
        </mxCell>
        <mxCell id="_K4_nlBd1ZawLLgTwEat-2" value="Fees Management" style="html=1;whiteSpace=wrap;" parent="1" vertex="1">
          <mxGeometry x="600" y="190" width="120" height="50" as="geometry" />
        </mxCell>
        <mxCell id="_K4_nlBd1ZawLLgTwEat-3" value="Student Management" style="html=1;whiteSpace=wrap;" parent="1" vertex="1">
          <mxGeometry x="120" y="190" width="120" height="50" as="geometry" />
        </mxCell>
        <mxCell id="_K4_nlBd1ZawLLgTwEat-4" value="System user Management" style="html=1;whiteSpace=wrap;" parent="1" vertex="1">
          <mxGeometry x="600" y="350" width="120" height="50" as="geometry" />
        </mxCell>
        <mxCell id="_K4_nlBd1ZawLLgTwEat-5" value="Faculty Management" style="html=1;whiteSpace=wrap;" parent="1" vertex="1">
          <mxGeometry x="120" y="350" width="120" height="50" as="geometry" />
        </mxCell>
        <mxCell id="_K4_nlBd1ZawLLgTwEat-6" value="Log-in Management" style="html=1;whiteSpace=wrap;" parent="1" vertex="1">
          <mxGeometry x="360" y="470" width="120" height="50" as="geometry" />
        </mxCell>
        <mxCell id="_K4_nlBd1ZawLLgTwEat-7" value="Classes Management" style="html=1;whiteSpace=wrap;" parent="1" vertex="1">
          <mxGeometry x="360" y="70" width="120" height="50" as="geometry" />
        </mxCell>
        <mxCell id="_K4_nlBd1ZawLLgTwEat-8" value="School &lt;br&gt;Management &lt;br&gt;System" style="text;html=1;align=center;verticalAlign=middle;resizable=0;points=[];autosize=1;strokeColor=none;fillColor=none;" parent="1" vertex="1">
          <mxGeometry x="375" y="260" width="90" height="60" as="geometry" />
        </mxCell>
        <mxCell id="_K4_nlBd1ZawLLgTwEat-9" value="" style="endArrow=classic;startArrow=classic;html=1;rounded=0;entryX=0.5;entryY=1;entryDx=0;entryDy=0;" parent="1" source="_K4_nlBd1ZawLLgTwEat-1" target="_K4_nlBd1ZawLLgTwEat-7" edge="1">
          <mxGeometry width="50" height="50" relative="1" as="geometry">
            <mxPoint x="375" y="190" as="sourcePoint" />
            <mxPoint x="425" y="140" as="targetPoint" />
          </mxGeometry>
        </mxCell>
        <mxCell id="_K4_nlBd1ZawLLgTwEat-10" value="" style="endArrow=classic;startArrow=classic;html=1;rounded=0;exitX=1;exitY=0.75;exitDx=0;exitDy=0;entryX=0.05;entryY=0.28;entryDx=0;entryDy=0;entryPerimeter=0;" parent="1" source="_K4_nlBd1ZawLLgTwEat-3" target="_K4_nlBd1ZawLLgTwEat-1" edge="1">
          <mxGeometry width="50" height="50" relative="1" as="geometry">
            <mxPoint x="235" y="320" as="sourcePoint" />
            <mxPoint x="370" y="270" as="targetPoint" />
          </mxGeometry>
        </mxCell>
        <mxCell id="_K4_nlBd1ZawLLgTwEat-11" value="" style="endArrow=classic;startArrow=classic;html=1;rounded=0;entryX=0;entryY=0.5;entryDx=0;entryDy=0;" parent="1" source="_K4_nlBd1ZawLLgTwEat-1" target="_K4_nlBd1ZawLLgTwEat-2" edge="1">
          <mxGeometry width="50" height="50" relative="1" as="geometry">
            <mxPoint x="400" y="300" as="sourcePoint" />
            <mxPoint x="450" y="250" as="targetPoint" />
          </mxGeometry>
        </mxCell>
        <mxCell id="_K4_nlBd1ZawLLgTwEat-13" value="" style="endArrow=classic;startArrow=classic;html=1;rounded=0;entryX=0.5;entryY=1;entryDx=0;entryDy=0;exitX=0.5;exitY=0;exitDx=0;exitDy=0;" parent="1" source="_K4_nlBd1ZawLLgTwEat-6" target="_K4_nlBd1ZawLLgTwEat-1" edge="1">
          <mxGeometry width="50" height="50" relative="1" as="geometry">
            <mxPoint x="370" y="440" as="sourcePoint" />
            <mxPoint x="420" y="390" as="targetPoint" />
          </mxGeometry>
        </mxCell>
        <mxCell id="_K4_nlBd1ZawLLgTwEat-14" value="" style="endArrow=classic;startArrow=classic;html=1;rounded=0;exitX=1;exitY=0.5;exitDx=0;exitDy=0;" parent="1" source="_K4_nlBd1ZawLLgTwEat-5" edge="1">
          <mxGeometry width="50" height="50" relative="1" as="geometry">
            <mxPoint x="325" y="380" as="sourcePoint" />
            <mxPoint x="375" y="330" as="targetPoint" />
          </mxGeometry>
        </mxCell>
        <mxCell id="_K4_nlBd1ZawLLgTwEat-16" value="" style="endArrow=classic;startArrow=classic;html=1;rounded=0;entryX=0.003;entryY=0.425;entryDx=0;entryDy=0;entryPerimeter=0;" parent="1" target="_K4_nlBd1ZawLLgTwEat-4" edge="1">
          <mxGeometry width="50" height="50" relative="1" as="geometry">
            <mxPoint x="469" y="325" as="sourcePoint" />
            <mxPoint x="480" y="350" as="targetPoint" />
          </mxGeometry>
        </mxCell>
      </root>
    </mxGraphModel>
  </diagram>
</mxfile>
